<svg height="1006" width="720" xmlns="http://www.w3.org/2000/svg">
<rect height="1006" fill="#555" width="720"></rect>
<text fill="#7f7" font-family="Courier New" font-size="12" xml:space="preserve">
<tspan x="10" y="26">3 megabytes installed</tspan>
<tspan x="10" y="42"></tspan>
<tspan x="10" y="58">node_modules</tspan>
<tspan x="10" y="74">└─┬ sails-hook-autoreload@1.0.0 </tspan>
<tspan x="10" y="90">  ├── @sailshq/lodash@3.10.2 </tspan>
<tspan x="10" y="106">  └─┬ chokidar@1.6.1 </tspan>
<tspan x="10" y="122">    ├─┬ anymatch@1.3.0 </tspan>
<tspan x="10" y="138">    │ ├── arrify@1.0.1 </tspan>
<tspan x="10" y="154">    │ └─┬ micromatch@2.3.11 </tspan>
<tspan x="10" y="170">    │   ├─┬ arr-diff@2.0.0 </tspan>
<tspan x="10" y="186">    │   │ └── arr-flatten@1.0.3 </tspan>
<tspan x="10" y="202">    │   ├── array-unique@0.2.1 </tspan>
<tspan x="10" y="218">    │   ├─┬ braces@1.8.5 </tspan>
<tspan x="10" y="234">    │   │ ├─┬ expand-range@1.8.2 </tspan>
<tspan x="10" y="250">    │   │ │ └─┬ fill-range@2.2.3 </tspan>
<tspan x="10" y="266">    │   │ │   ├── is-number@2.1.0 </tspan>
<tspan x="10" y="282">    │   │ │   ├── isobject@2.1.0 </tspan>
<tspan x="10" y="298">    │   │ │   ├── randomatic@1.1.6 </tspan>
<tspan x="10" y="314">    │   │ │   └── repeat-string@1.6.1 </tspan>
<tspan x="10" y="330">    │   │ ├── preserve@0.2.0 </tspan>
<tspan x="10" y="346">    │   │ └── repeat-element@1.1.2 </tspan>
<tspan x="10" y="362">    │   ├─┬ expand-brackets@0.1.5 </tspan>
<tspan x="10" y="378">    │   │ └── is-posix-bracket@0.1.1 </tspan>
<tspan x="10" y="394">    │   ├── extglob@0.3.2 </tspan>
<tspan x="10" y="410">    │   ├── filename-regex@2.0.0 </tspan>
<tspan x="10" y="426">    │   ├─┬ kind-of@3.1.0 </tspan>
<tspan x="10" y="442">    │   │ └── is-buffer@1.1.5 </tspan>
<tspan x="10" y="458">    │   ├─┬ normalize-path@2.1.1 </tspan>
<tspan x="10" y="474">    │   │ └── remove-trailing-separator@1.0.1 </tspan>
<tspan x="10" y="490">    │   ├─┬ object.omit@2.0.1 </tspan>
<tspan x="10" y="506">    │   │ ├─┬ for-own@0.1.5 </tspan>
<tspan x="10" y="522">    │   │ │ └── for-in@1.0.2 </tspan>
<tspan x="10" y="538">    │   │ └── is-extendable@0.1.1 </tspan>
<tspan x="10" y="554">    │   ├─┬ parse-glob@3.0.4 </tspan>
<tspan x="10" y="570">    │   │ ├── glob-base@0.3.0 </tspan>
<tspan x="10" y="586">    │   │ └── is-dotfile@1.0.2 </tspan>
<tspan x="10" y="602">    │   └─┬ regex-cache@0.4.3 </tspan>
<tspan x="10" y="618">    │     ├── is-equal-shallow@0.1.3 </tspan>
<tspan x="10" y="634">    │     └── is-primitive@2.0.0 </tspan>
<tspan x="10" y="650">    ├── async-each@1.0.1 </tspan>
<tspan x="10" y="666">    ├── glob-parent@2.0.0 </tspan>
<tspan x="10" y="682">    ├── inherits@2.0.3 </tspan>
<tspan x="10" y="698">    ├─┬ is-binary-path@1.0.1 </tspan>
<tspan x="10" y="714">    │ └── binary-extensions@1.8.0 </tspan>
<tspan x="10" y="730">    ├─┬ is-glob@2.0.1 </tspan>
<tspan x="10" y="746">    │ └── is-extglob@1.0.0 </tspan>
<tspan x="10" y="762">    ├── path-is-absolute@1.0.1 </tspan>
<tspan x="10" y="778">    └─┬ readdirp@2.1.0 </tspan>
<tspan x="10" y="794">      ├── graceful-fs@4.1.11 </tspan>
<tspan x="10" y="810">      ├─┬ minimatch@3.0.3 </tspan>
<tspan x="10" y="826">      │ └─┬ brace-expansion@1.1.7 </tspan>
<tspan x="10" y="842">      │   ├── balanced-match@0.4.2 </tspan>
<tspan x="10" y="858">      │   └── concat-map@0.0.1 </tspan>
<tspan x="10" y="874">      ├─┬ readable-stream@2.2.9 </tspan>
<tspan x="10" y="890">      │ ├── buffer-shims@1.0.0 </tspan>
<tspan x="10" y="906">      │ ├── core-util-is@1.0.2 </tspan>
<tspan x="10" y="922">      │ ├── isarray@1.0.0 </tspan>
<tspan x="10" y="938">      │ ├── process-nextick-args@1.0.7 </tspan>
<tspan x="10" y="954">      │ ├── string_decoder@1.0.0 </tspan>
<tspan x="10" y="970">      │ └── util-deprecate@1.0.2 </tspan>
<tspan x="10" y="986">      └── set-immediate-shim@1.0.1</tspan>
</text>
</svg>
